<svg version="1.1" id="Layer_1" xmlns="http://www.w3.org/2000/svg" xmlns:xlink="http://www.w3.org/1999/xlink" x="0px" y="0px"
	 width="100%" viewBox="0 0 529 456" enable-background="new 0 0 529 456" xml:space="preserve">
<path fill="#FF0101" opacity="1.000000" stroke="none" 
	d="
M358.000000,457.000000 
	C238.666702,457.000000 119.833389,457.000000 1.000064,457.000000 
	C1.000042,305.000061 1.000042,153.000122 1.000021,1.000145 
	C177.333237,1.000097 353.666473,1.000097 529.999756,1.000048 
	C529.999878,152.999863 529.999878,304.999725 529.999939,456.999786 
	C472.833344,457.000000 415.666656,457.000000 358.000000,457.000000 
M294.543365,319.999573 
	C292.598602,319.999573 290.653839,319.999573 288.287598,319.999573 
	C288.287598,256.642487 288.287598,193.881348 288.287598,130.831848 
	C269.541595,130.831848 251.220383,130.940689 232.902557,130.740341 
	C229.223114,130.700104 227.415039,131.762711 225.820724,135.179825 
	C210.074677,168.928116 194.114990,202.576736 178.205200,236.248566 
	C177.485718,237.771317 176.664627,239.246078 175.609970,241.286667 
	C158.799789,205.432999 142.316788,170.379181 125.977448,135.258499 
	C124.463417,132.004166 122.787079,130.662277 118.982841,130.719940 
	C101.986923,130.977524 84.984901,130.825760 67.985100,130.841965 
	C66.394859,130.843491 64.804749,130.986084 62.834969,131.081573 
	C62.834969,194.239548 62.834969,256.984772 62.834969,320.169312 
	C53.358501,320.169312 44.282162,320.169312 35.273800,320.169312 
	C35.273800,324.373199 35.273800,328.130432 35.273800,331.861694 
	C59.608074,331.861694 83.666710,331.861694 108.218872,331.861694 
	C108.218872,290.234558 108.218872,248.920837 108.218872,206.215973 
	C109.625504,208.964905 110.384308,210.402130 111.103058,211.859100 
	C127.436958,244.969849 143.819077,278.057068 160.015717,311.234863 
	C161.642136,314.566467 163.462341,315.836273 167.173080,315.600861 
	C172.816971,315.242767 178.515701,315.253784 184.161530,315.596375 
	C187.912094,315.823914 189.638000,314.395569 191.255844,311.096191 
	C207.437943,278.094421 223.813858,245.187714 240.141434,212.257324 
	C240.871094,210.785675 241.660995,209.343903 242.422836,207.888214 
	C242.796494,208.038025 243.170166,208.187836 243.543823,208.337631 
	C243.543823,249.458878 243.543823,290.580109 243.543823,331.925690 
	C328.158447,331.925690 412.388611,331.925690 496.794250,331.925690 
	C496.794250,327.924530 496.794250,324.175598 496.794250,319.984497 
	C487.525146,319.984497 478.449158,319.984497 468.838257,319.984497 
	C468.838257,310.501251 468.838257,301.447418 468.838257,292.101807 
	C440.019592,292.101807 411.747559,292.101807 382.957550,292.101807 
	C382.957550,238.227676 382.957550,184.667679 382.957550,131.147247 
	C367.708771,131.147247 352.982849,131.147247 337.853516,131.147247 
	C337.853516,194.216827 337.853516,256.962555 337.853516,319.999573 
	C323.475647,319.999573 309.504395,319.999573 294.543365,319.999573 
M304.499939,455.175293 
	C377.565826,455.175293 450.631714,455.175293 523.958069,455.175293 
	C523.708313,454.216858 523.684998,453.711517 523.459961,453.323059 
	C508.383820,427.299622 493.335632,401.259583 478.076965,375.343414 
	C477.267242,373.968201 474.667694,372.937775 472.900360,372.936371 
	C334.956909,372.826263 197.013351,372.844513 59.069828,372.771606 
	C56.212387,372.770081 54.633930,373.630798 53.212612,376.120453 
	C43.407303,393.296295 33.441452,410.380493 23.525562,427.493195 
	C18.311455,436.491608 13.093994,445.488037 7.478093,455.175293 
	C106.708740,455.175293 205.104340,455.175293 304.499939,455.175293 
M227.977966,73.454414 
	C224.892273,78.839554 221.806564,84.224701 218.614151,89.796097 
	C250.517838,89.796097 281.698822,89.796097 313.521698,89.796097 
	C297.575378,62.184521 281.958771,35.143887 266.018158,7.542242 
	C253.087219,29.915257 240.695023,51.356117 227.977966,73.454414 
z"/>
<path fill="#FFFEFE" opacity="1.000000" stroke="none" 
	d="
M295.038269,319.999573 
	C309.504395,319.999573 323.475647,319.999573 337.853516,319.999573 
	C337.853516,256.962555 337.853516,194.216827 337.853516,131.147247 
	C352.982849,131.147247 367.708771,131.147247 382.957550,131.147247 
	C382.957550,184.667679 382.957550,238.227676 382.957550,292.101807 
	C411.747559,292.101807 440.019592,292.101807 468.838257,292.101807 
	C468.838257,301.447418 468.838257,310.501251 468.838257,319.984497 
	C478.449158,319.984497 487.525146,319.984497 496.794250,319.984497 
	C496.794250,324.175598 496.794250,327.924530 496.794250,331.925690 
	C412.388611,331.925690 328.158447,331.925690 243.543823,331.925690 
	C243.543823,290.580109 243.543823,249.458878 243.543823,208.337631 
	C243.170166,208.187836 242.796494,208.038025 242.422836,207.888214 
	C241.660995,209.343903 240.871094,210.785675 240.141434,212.257324 
	C223.813858,245.187714 207.437943,278.094421 191.255844,311.096191 
	C189.638000,314.395569 187.912094,315.823914 184.161530,315.596375 
	C178.515701,315.253784 172.816971,315.242767 167.173080,315.600861 
	C163.462341,315.836273 161.642136,314.566467 160.015717,311.234863 
	C143.819077,278.057068 127.436958,244.969849 111.103058,211.859100 
	C110.384308,210.402130 109.625504,208.964905 108.218872,206.215973 
	C108.218872,248.920837 108.218872,290.234558 108.218872,331.861694 
	C83.666710,331.861694 59.608074,331.861694 35.273800,331.861694 
	C35.273800,328.130432 35.273800,324.373199 35.273800,320.169312 
	C44.282162,320.169312 53.358501,320.169312 62.834969,320.169312 
	C62.834969,256.984772 62.834969,194.239548 62.834969,131.081573 
	C64.804749,130.986084 66.394859,130.843491 67.985100,130.841965 
	C84.984901,130.825760 101.986923,130.977524 118.982841,130.719940 
	C122.787079,130.662277 124.463417,132.004166 125.977448,135.258499 
	C142.316788,170.379181 158.799789,205.432999 175.609970,241.286667 
	C176.664627,239.246078 177.485718,237.771317 178.205200,236.248566 
	C194.114990,202.576736 210.074677,168.928116 225.820724,135.179825 
	C227.415039,131.762711 229.223114,130.700104 232.902557,130.740341 
	C251.220383,130.940689 269.541595,130.831848 288.287598,130.831848 
	C288.287598,193.881348 288.287598,256.642487 288.287598,319.999573 
	C290.653839,319.999573 292.598602,319.999573 295.038269,319.999573 
z"/>
<path fill="#FFFFFF" opacity="1.000000" stroke="none" 
	d="
M303.999939,455.175293 
	C205.104340,455.175293 106.708740,455.175293 7.478093,455.175293 
	C13.093994,445.488037 18.311455,436.491608 23.525562,427.493195 
	C33.441452,410.380493 43.407303,393.296295 53.212612,376.120453 
	C54.633930,373.630798 56.212387,372.770081 59.069828,372.771606 
	C197.013351,372.844513 334.956909,372.826263 472.900360,372.936371 
	C474.667694,372.937775 477.267242,373.968201 478.076965,375.343414 
	C493.335632,401.259583 508.383820,427.299622 523.459961,453.323059 
	C523.684998,453.711517 523.708313,454.216858 523.958069,455.175293 
	C450.631714,455.175293 377.565826,455.175293 303.999939,455.175293 
z"/>
<path fill="#FFFEFE" opacity="1.000000" stroke="none" 
	d="
M228.140396,73.125702 
	C240.695023,51.356117 253.087219,29.915257 266.018158,7.542242 
	C281.958771,35.143887 297.575378,62.184521 313.521698,89.796097 
	C281.698822,89.796097 250.517838,89.796097 218.614151,89.796097 
	C221.806564,84.224701 224.892273,78.839554 228.140396,73.125702 
z"/>
</svg>